<?xml version="1.0" encoding="utf-8"?>
<svg xmlns="http://www.w3.org/2000/svg"
	xmlns:xlink="http://www.w3.org/1999/xlink"
	width="23px" height="23px" viewBox="0 0 23 23">
<path fillRule="evenodd" d="M 9.55 0.5C 8.33 0.5 7.16 0.74 6.04 1.23 4.93 1.7 3.97 2.33 3.18 3.13 2.38 3.94 1.74 4.9 1.25 6.01 0.79 7.12 0.55 8.28 0.55 9.5 0.55 10.72 0.79 11.88 1.25 12.99 1.74 14.1 2.38 15.06 3.18 15.88 3.97 16.67 4.93 17.31 6.04 17.8 7.16 18.27 8.33 18.5 9.55 18.5 10.6 18.5 11.6 18.33 12.55 17.98 13.5 17.64 14.37 17.16 15.15 16.53 15.15 16.53 20.82 22.2 20.82 22.2 21.03 22.41 21.27 22.51 21.55 22.51 21.83 22.51 22.07 22.41 22.25 22.2 22.44 22.02 22.54 21.78 22.54 21.5 22.54 21.22 22.44 20.98 22.25 20.8 22.25 20.8 16.58 15.12 16.58 15.12 17.21 14.34 17.69 13.47 18.04 12.5 18.38 11.55 18.55 10.55 18.55 9.5 18.55 8.28 18.31 7.12 17.82 6.01 17.36 4.9 16.71 3.94 15.9 3.13 15.11 2.33 14.15 1.7 13.04 1.23 11.93 0.74 10.77 0.5 9.55 0.5 9.55 0.5 9.55 0.5 9.55 0.5ZM 9.55 2.49C 10.49 2.49 11.39 2.68 12.27 3.05 13.13 3.43 13.87 3.93 14.5 4.55 15.12 5.18 15.62 5.92 16 6.78 16.36 7.64 16.54 8.55 16.54 9.5 16.54 10.45 16.36 11.36 16 12.22 15.62 13.08 15.12 13.82 14.5 14.45 13.87 15.07 13.13 15.57 12.27 15.95 11.39 16.32 10.49 16.51 9.55 16.51 8.6 16.51 7.69 16.32 6.83 15.95 5.96 15.57 5.21 15.07 4.58 14.45 3.96 13.82 3.46 13.08 3.11 12.22 2.73 11.36 2.54 10.45 2.54 9.5 2.54 8.55 2.73 7.64 3.11 6.78 3.46 5.92 3.96 5.18 4.58 4.55 5.21 3.93 5.96 3.43 6.83 3.05 7.69 2.68 8.6 2.49 9.55 2.49 9.55 2.49 9.55 2.49 9.55 2.49Z" fill="rgb(0,0,0)"/></svg>